<mxfile host="app.diagrams.net" modified="2022-05-29T17:58:25.999Z" agent="5.0 (Windows NT 10.0; Win64; x64) AppleWebKit/537.36 (KHTML, like Gecko) Chrome/101.0.0.0 Safari/537.36" etag="wY-E9uuRifA06BC2w-W5" version="18.1.3" type="github">
  <diagram id="C5RBs43oDa-KdzZeNtuy" name="Page-1">
    <mxGraphModel dx="2249" dy="754" grid="1" gridSize="10" guides="1" tooltips="1" connect="1" arrows="1" fold="1" page="1" pageScale="1" pageWidth="827" pageHeight="1169" math="0" shadow="0">
      <root>
        <mxCell id="WIyWlLk6GJQsqaUBKTNV-0" />
        <mxCell id="WIyWlLk6GJQsqaUBKTNV-1" parent="WIyWlLk6GJQsqaUBKTNV-0" />
        <mxCell id="tz2wylL4mUxasDIWv47P-2" value="" style="edgeStyle=orthogonalEdgeStyle;rounded=0;orthogonalLoop=1;jettySize=auto;html=1;" edge="1" parent="WIyWlLk6GJQsqaUBKTNV-1" source="tz2wylL4mUxasDIWv47P-0" target="tz2wylL4mUxasDIWv47P-1">
          <mxGeometry relative="1" as="geometry" />
        </mxCell>
        <mxCell id="tz2wylL4mUxasDIWv47P-0" value="real-time&amp;nbsp;&lt;br&gt;BD" style="shape=cylinder3;whiteSpace=wrap;html=1;boundedLbl=1;backgroundOutline=1;size=15;" vertex="1" parent="WIyWlLk6GJQsqaUBKTNV-1">
          <mxGeometry x="70" y="270" width="60" height="80" as="geometry" />
        </mxCell>
        <mxCell id="tz2wylL4mUxasDIWv47P-8" value="" style="edgeStyle=orthogonalEdgeStyle;rounded=0;orthogonalLoop=1;jettySize=auto;html=1;" edge="1" parent="WIyWlLk6GJQsqaUBKTNV-1" source="tz2wylL4mUxasDIWv47P-1" target="tz2wylL4mUxasDIWv47P-7">
          <mxGeometry relative="1" as="geometry" />
        </mxCell>
        <mxCell id="tz2wylL4mUxasDIWv47P-9" value="Выходные данные&lt;br&gt;ЗАЯВКА" style="edgeLabel;html=1;align=center;verticalAlign=middle;resizable=0;points=[];" vertex="1" connectable="0" parent="tz2wylL4mUxasDIWv47P-8">
          <mxGeometry x="-0.1692" y="-4" relative="1" as="geometry">
            <mxPoint as="offset" />
          </mxGeometry>
        </mxCell>
        <mxCell id="tz2wylL4mUxasDIWv47P-1" value="Система оператора" style="whiteSpace=wrap;html=1;" vertex="1" parent="WIyWlLk6GJQsqaUBKTNV-1">
          <mxGeometry x="360" y="280" width="120" height="60" as="geometry" />
        </mxCell>
        <mxCell id="tz2wylL4mUxasDIWv47P-3" value="сервер" style="shape=cube;whiteSpace=wrap;html=1;boundedLbl=1;backgroundOutline=1;darkOpacity=0.05;darkOpacity2=0.1;" vertex="1" parent="WIyWlLk6GJQsqaUBKTNV-1">
          <mxGeometry x="45" y="140" width="110" height="70" as="geometry" />
        </mxCell>
        <mxCell id="tz2wylL4mUxasDIWv47P-4" value="" style="endArrow=classic;html=1;rounded=0;exitX=0.492;exitY=1;exitDx=0;exitDy=0;exitPerimeter=0;entryX=0.5;entryY=0;entryDx=0;entryDy=0;entryPerimeter=0;" edge="1" parent="WIyWlLk6GJQsqaUBKTNV-1" source="tz2wylL4mUxasDIWv47P-3" target="tz2wylL4mUxasDIWv47P-0">
          <mxGeometry width="50" height="50" relative="1" as="geometry">
            <mxPoint x="80" y="240" as="sourcePoint" />
            <mxPoint x="130" y="190" as="targetPoint" />
          </mxGeometry>
        </mxCell>
        <mxCell id="tz2wylL4mUxasDIWv47P-5" value="Vertical Container" style="swimlane;" vertex="1" parent="WIyWlLk6GJQsqaUBKTNV-1">
          <mxGeometry x="-20" y="100" width="220" height="270" as="geometry" />
        </mxCell>
        <mxCell id="tz2wylL4mUxasDIWv47P-6" value="Входные данные" style="text;html=1;align=center;verticalAlign=middle;resizable=0;points=[];autosize=1;strokeColor=none;fillColor=none;" vertex="1" parent="WIyWlLk6GJQsqaUBKTNV-1">
          <mxGeometry x="195" y="300" width="110" height="20" as="geometry" />
        </mxCell>
        <mxCell id="tz2wylL4mUxasDIWv47P-7" value="Заказ &lt;br&gt;пользователя&amp;nbsp;" style="shape=parallelogram;perimeter=parallelogramPerimeter;whiteSpace=wrap;html=1;fixedSize=1;" vertex="1" parent="WIyWlLk6GJQsqaUBKTNV-1">
          <mxGeometry x="660" y="280" width="120" height="60" as="geometry" />
        </mxCell>
        <mxCell id="tz2wylL4mUxasDIWv47P-10" value="" style="curved=1;endArrow=classic;html=1;rounded=0;exitX=0.6;exitY=-0.033;exitDx=0;exitDy=0;exitPerimeter=0;" edge="1" parent="WIyWlLk6GJQsqaUBKTNV-1" source="tz2wylL4mUxasDIWv47P-7" target="tz2wylL4mUxasDIWv47P-3">
          <mxGeometry width="50" height="50" relative="1" as="geometry">
            <mxPoint x="650" y="170" as="sourcePoint" />
            <mxPoint x="700" y="120" as="targetPoint" />
            <Array as="points">
              <mxPoint x="700" y="170" />
              <mxPoint x="300" y="100" />
            </Array>
          </mxGeometry>
        </mxCell>
      </root>
    </mxGraphModel>
  </diagram>
</mxfile>
